<svg width="4400" height="3300" viewBox="0 0 73 54" fill="none" xmlns="http://www.w3.org/2000/svg">
  <path
    d="M7.496 17.2629L7.7752 17.2824C8.4688 17.3424 9.1663 17.4009 9.84 17.5399C12.9523 18.2742 15.0761 21.2703 15.3553 25.3598C15.3748 25.6563 15.3937 25.9539 15.3937 26.2505C15.3358 26.7272 15.273 27.2228 15.2963 27.719C15.3152 31.9459 18.0326 35.3986 21.6249 35.7163L21.9236 35.7352C22.6172 35.7958 23.3109 35.8553 23.9856 36.0149C27.1012 36.747 29.2255 39.7236 29.5042 43.8315C29.5042 43.8721 29.5042 43.891 29.5042 43.9299C29.3451 44.8043 29.2834 45.7366 29.3646 46.729C29.7212 50.7163 32.5392 53.7934 36.1488 53.8925C36.2083 53.8925 36.2667 53.873 36.3484 53.873C36.4058 53.873 36.488 53.8925 36.5459 53.8925C40.1577 53.7929 42.9946 50.7163 43.3317 46.729C43.4107 45.7561 43.3512 44.8238 43.1916 43.9299C43.1916 43.8916 43.1916 43.8726 43.1916 43.8315C43.4713 39.7452 45.5945 36.7465 48.709 36.0149C49.3854 35.8553 50.0791 35.7963 50.7728 35.7352L51.052 35.7163C54.6426 35.3986 57.3611 31.9665 57.3805 27.719C57.3805 27.2228 57.3421 26.7272 57.2815 26.2505C57.301 25.9534 57.301 25.6558 57.3226 25.3598C57.5975 21.2697 59.7213 18.2743 62.8374 17.54C63.5116 17.3815 64.2053 17.322 64.9011 17.2825L65.1787 17.263C68.771 16.9454 72.9758 13.4537 72.6793 8.33385C72.4217 3.82825 68.6914 1.21155 64.9206 0.992454L64.5835 0.973457C61.0318 0.973456 58.1153 4.24596 57.8188 8.57246L57.6792 11.0913C57.3811 15.0792 55.4158 17.9377 52.4399 18.7704C51.8858 18.9301 51.289 18.9896 50.7154 19.0697C50.0796 19.1487 49.4249 19.2282 48.7891 19.3851C45.2975 20.2395 43.5492 28.6518 43.5904 28.8515L43.5498 29.5657C43.2744 33.4745 41.2501 36.431 38.3137 37.2427C37.7558 37.4018 37.1633 37.4618 36.586 37.5419C36.5086 37.5419 36.4269 37.5803 36.33 37.5803C36.2483 37.5803 36.1709 37.5419 36.0708 37.5419C35.4968 37.4623 34.9194 37.4018 34.3459 37.2427C31.3894 36.431 29.3857 33.4929 29.106 29.5657L29.0675 28.8515C29.106 28.6518 27.3626 20.2395 23.8666 19.3851C23.2346 19.2282 22.5994 19.1487 21.9636 19.0697C21.3863 18.9901 20.7938 18.9301 20.2359 18.7704C17.2399 17.9377 15.2747 15.0792 14.9998 11.0913L14.8602 8.57245C14.561 4.24595 11.6661 0.973452 8.11229 0.973452L7.77569 0.992449C4.00429 1.21155 0.276794 3.82825 0.0170938 8.33385C-0.301707 13.4536 3.9264 16.9453 7.496 17.2629Z"
    fill="#008EEE"/>
  <path
    d="M21.9619 35.7357C25.6705 35.7357 28.5507 32.8008 28.9847 28.7524C29.0463 28.1171 29.0858 27.4814 29.1048 26.8477L29.1632 25.6958C29.4424 21.6073 31.5651 18.6118 34.6818 17.8776C35.2353 17.7591 35.7926 17.7001 36.3483 17.6606C36.9019 17.7001 37.4792 17.7596 38.0149 17.8776C41.1305 18.6118 43.2526 21.6078 43.5291 25.6958L43.5892 26.8477C43.6298 27.4814 43.6492 28.1171 43.7071 28.7524C44.1454 32.8008 47.0213 35.7357 50.7337 35.7357C54.1653 35.6372 57.8761 32.5432 58.2137 28.5527C58.5892 24.1677 55.5164 20.5365 52.022 19.6843C51.3884 19.5241 50.7532 19.4462 50.1174 19.3661C49.5422 19.286 48.9665 19.2281 48.393 19.0696C40.3551 16.2597 42.8933 11.5349 42.8933 11.5349C43.2715 10.3591 43.6876 8.94852 43.6876 7.87612C43.6876 3.53172 40.94 1.75606e-05 36.3283 1.71575e-05C31.9487 1.67746e-05 28.9652 3.53122 28.9652 7.87612C28.9652 9.00752 29.4321 10.9868 29.7092 11.8358C29.7092 11.8358 31.0965 17.5394 24.3416 19.0691C23.768 19.2276 23.1907 19.285 22.6166 19.3656C21.9813 19.4451 21.3261 19.5236 20.6903 19.6837C17.1981 20.5354 14.1442 24.1672 14.5013 28.5522C14.8 32.5427 18.5281 35.6372 21.9619 35.7357Z"
    fill="url(#paint0_linear_132_28)"/>
  <defs>
    <linearGradient id="paint0_linear_132_28" x1="48.884" y1="6.03542" x2="28.8859" y2="40.6731"
                    gradientUnits="userSpaceOnUse">
      <stop stop-color="#04D8C5"/>
      <stop offset="1" stop-color="#00E2FF"/>
    </linearGradient>
  </defs>
</svg>
